<svg width="179" height="63" viewBox="0 0 179 63" fill="none" xmlns="http://www.w3.org/2000/svg">
<path d="M107.4 23.8667H100.467V28.64H81.9805L75.048 35.8V28.64H70.4262V7.16H75.048V0H107.4V23.8667ZM98.1566 9.54667H72.7371V26.2533H77.3588V30.0384C77.9726 29.4045 78.5744 28.7705 79.1642 28.1366C79.766 27.5026 80.3858 26.8749 81.0237 26.2533H98.1566V9.54667ZM105.089 2.38667H77.3588V7.16H100.467V21.48H105.089V2.38667Z" fill="#052882"/>
<path d="M82 18C82 19.1046 81.1046 20 80 20C78.8954 20 78 19.1046 78 18C78 16.8954 78.8954 16 80 16C81.1046 16 82 16.8954 82 18Z" fill="#052882"/>
<path d="M88 18C88 19.1046 87.1046 20 86 20C84.8954 20 84 19.1046 84 18C84 16.8954 84.8954 16 86 16C87.1046 16 88 16.8954 88 18Z" fill="#052882"/>
<path d="M94 18C94 19.1046 93.1046 20 92 20C90.8954 20 90 19.1046 90 18C90 16.8954 90.8954 16 92 16C93.1046 16 94 16.8954 94 18Z" fill="#052882"/>
<path d="M6.34296 45.9709C7.68906 45.9709 8.74282 46.5039 9.50424 47.5699C10.2657 48.629 10.6464 50.0836 10.6464 51.9337C10.6464 53.8388 10.2521 55.314 9.46345 56.3594C8.68163 57.4048 7.61427 57.9275 6.26138 57.9275C4.92208 57.9275 3.87172 57.4358 3.11029 56.4523H2.89614L2.37606 57.7212H0V41.6689H3.11029V45.4035C3.11029 45.878 3.0695 46.638 2.98792 47.6834H3.11029C3.83773 46.5417 4.91529 45.9709 6.34296 45.9709ZM5.34359 48.488C4.57536 48.488 4.01449 48.7288 3.66097 49.2102C3.30745 49.6847 3.12389 50.4722 3.11029 51.5726V51.9131C3.11029 53.151 3.29045 54.0382 3.65077 54.5747C4.01789 55.1111 4.59576 55.3794 5.38438 55.3794C6.02343 55.3794 6.52992 55.0836 6.90383 54.4922C7.28455 53.8938 7.4749 53.0272 7.4749 51.8924C7.4749 50.7576 7.28455 49.9083 6.90383 49.3443C6.52312 48.7735 6.00304 48.488 5.34359 48.488Z" fill="#052882"/>
<path d="M21.2928 57.7212L20.8747 56.2459H20.7115C20.3784 56.7824 19.9059 57.1985 19.294 57.4942C18.6822 57.7831 17.9853 57.9275 17.2035 57.9275C15.8642 57.9275 14.8546 57.5664 14.1748 56.8443C13.4949 56.1153 13.155 55.0699 13.155 53.7081V46.1875H16.2653V52.9241C16.2653 53.7563 16.4115 54.3821 16.7038 54.8016C16.9961 55.2143 17.4618 55.4206 18.1009 55.4206C18.9711 55.4206 19.6 55.1283 19.9875 54.5437C20.375 53.9523 20.5687 52.9757 20.5687 51.6139V46.1875H23.679V57.7212H21.2928Z" fill="#052882"/>
<path d="M34.8965 54.2961C34.8965 55.4791 34.4886 56.38 33.6728 56.999C32.8637 57.618 31.6502 57.9275 30.0322 57.9275C29.2028 57.9275 28.4957 57.869 27.9111 57.7521C27.3264 57.6421 26.7791 57.477 26.2692 57.2569V54.6572C26.8471 54.9323 27.4964 55.1627 28.217 55.3484C28.9444 55.5341 29.5835 55.627 30.1342 55.627C31.2627 55.627 31.827 55.2968 31.827 54.6366C31.827 54.389 31.7522 54.1895 31.6026 54.0382C31.4531 53.8801 31.1947 53.7047 30.8276 53.5121C30.4605 53.3127 29.971 53.0823 29.3591 52.8209C28.4821 52.4495 27.8363 52.1056 27.4216 51.7893C27.0137 51.4729 26.7145 51.1118 26.5242 50.7061C26.3406 50.2934 26.2488 49.7879 26.2488 49.1896C26.2488 48.1648 26.6398 47.3739 27.4216 46.8168C28.2102 46.2528 29.3251 45.9709 30.7664 45.9709C32.1397 45.9709 33.4756 46.2735 34.7741 46.8787L33.8359 49.1483C33.2649 48.9007 32.7312 48.6978 32.2349 48.5396C31.7386 48.3814 31.2321 48.3024 30.7154 48.3024C29.7976 48.3024 29.3387 48.5534 29.3387 49.0554C29.3387 49.3374 29.4849 49.5816 29.7772 49.7879C30.0764 49.9942 30.7256 50.3003 31.725 50.7061C32.6156 51.0706 33.2683 51.411 33.683 51.7274C34.0977 52.0437 34.4036 52.4083 34.6008 52.8209C34.7979 53.2336 34.8965 53.7253 34.8965 54.2961Z" fill="#052882"/>
<path d="M45.2777 54.2961C45.2777 55.4791 44.8698 56.38 44.054 56.999C43.245 57.618 42.0315 57.9275 40.4134 57.9275C39.584 57.9275 38.877 57.869 38.2923 57.7521C37.7076 57.6421 37.1604 57.477 36.6505 57.2569V54.6572C37.2284 54.9323 37.8776 55.1627 38.5982 55.3484C39.3257 55.5341 39.9647 55.627 40.5154 55.627C41.644 55.627 42.2082 55.2968 42.2082 54.6366C42.2082 54.389 42.1334 54.1895 41.9839 54.0382C41.8343 53.8801 41.576 53.7047 41.2089 53.5121C40.8417 53.3127 40.3522 53.0823 39.7404 52.8209C38.8634 52.4495 38.2175 52.1056 37.8028 51.7893C37.3949 51.4729 37.0958 51.1118 36.9054 50.7061C36.7219 50.2934 36.6301 49.7879 36.6301 49.1896C36.6301 48.1648 37.021 47.3739 37.8028 46.8168C38.5914 46.2528 39.7064 45.9709 41.1477 45.9709C42.521 45.9709 43.8569 46.2735 45.1554 46.8787L44.2172 49.1483C43.6461 48.9007 43.1124 48.6978 42.6161 48.5396C42.1198 48.3814 41.6134 48.3024 41.0967 48.3024C40.1789 48.3024 39.72 48.5534 39.72 49.0554C39.72 49.3374 39.8662 49.5816 40.1585 49.7879C40.4576 49.9942 41.1069 50.3003 42.1063 50.7061C42.9968 51.0706 43.6495 51.411 44.0642 51.7274C44.4789 52.0437 44.7848 52.4083 44.982 52.8209C45.1792 53.2336 45.2777 53.7253 45.2777 54.2961Z" fill="#052882"/>
<path d="M47.5722 43.2061C47.5722 42.1813 48.1365 41.6689 49.265 41.6689C50.3936 41.6689 50.9578 42.1813 50.9578 43.2061C50.9578 43.6944 50.8151 44.0761 50.5295 44.3512C50.2508 44.6194 49.8293 44.7535 49.265 44.7535C48.1365 44.7535 47.5722 44.2377 47.5722 43.2061ZM50.8151 57.7212H47.7048V46.1875H50.8151V57.7212Z" fill="#052882"/>
<path d="M64.6125 57.7212H61.5023V50.9846C61.5023 50.1524 61.3561 49.53 61.0638 49.1173C60.7714 48.6978 60.3057 48.488 59.6667 48.488C58.7965 48.488 58.1676 48.7838 57.7801 49.3753C57.3926 49.9598 57.1988 50.933 57.1988 52.2948V57.7212H54.0885V46.1875H56.4646L56.8827 47.6627H57.0561C57.4028 47.1057 57.8787 46.6861 58.4837 46.4041C59.0956 46.1153 59.789 45.9709 60.5641 45.9709C61.8898 45.9709 62.8959 46.3354 63.5826 47.0644C64.2692 47.7865 64.6125 48.8319 64.6125 50.2006V57.7212Z" fill="#052882"/>
<path d="M72.5362 48.2095C71.8767 48.2095 71.36 48.4227 70.9861 48.8491C70.6122 49.2687 70.398 49.867 70.3436 50.6442H74.7083C74.6947 49.867 74.4941 49.2687 74.1066 48.8491C73.7191 48.4227 73.1956 48.2095 72.5362 48.2095ZM72.9747 57.9275C71.1391 57.9275 69.7046 57.4151 68.6712 56.3904C67.6379 55.3656 67.1212 53.9144 67.1212 52.0369C67.1212 50.1043 67.5971 48.6118 68.5489 47.5596C69.5074 46.5004 70.8297 45.9709 72.5158 45.9709C74.127 45.9709 75.3813 46.4351 76.2787 47.3636C77.1761 48.292 77.6248 49.5747 77.6248 51.2116V52.7384H70.2723C70.3063 53.6325 70.568 54.3305 71.0575 54.8326C71.547 55.3347 72.2336 55.5857 73.1174 55.5857C73.8041 55.5857 74.4533 55.5135 75.0652 55.369C75.677 55.2246 76.3161 54.9942 76.9823 54.6779V57.1125C76.4385 57.3876 75.8572 57.5905 75.2385 57.7212C74.6199 57.8587 73.8652 57.9275 72.9747 57.9275Z" fill="#052882"/>
<path d="M88.108 54.2961C88.108 55.4791 87.7001 56.38 86.8843 56.999C86.0753 57.618 84.8618 57.9275 83.2437 57.9275C82.4143 57.9275 81.7073 57.869 81.1226 57.7521C80.5379 57.6421 79.9907 57.477 79.4808 57.2569V54.6572C80.0586 54.9323 80.7079 55.1627 81.4285 55.3484C82.156 55.5341 82.795 55.627 83.3457 55.627C84.4742 55.627 85.0385 55.2968 85.0385 54.6366C85.0385 54.389 84.9637 54.1895 84.8142 54.0382C84.6646 53.8801 84.4063 53.7047 84.0391 53.5121C83.672 53.3127 83.1825 53.0823 82.5707 52.8209C81.6937 52.4495 81.0478 52.1056 80.6331 51.7893C80.2252 51.4729 79.9261 51.1118 79.7357 50.7061C79.5522 50.2934 79.4604 49.7879 79.4604 49.1896C79.4604 48.1648 79.8513 47.3739 80.6331 46.8168C81.4217 46.2528 82.5367 45.9709 83.978 45.9709C85.3512 45.9709 86.6871 46.2735 87.9856 46.8787L87.0475 49.1483C86.4764 48.9007 85.9427 48.6978 85.4464 48.5396C84.9501 48.3814 84.4436 48.3024 83.927 48.3024C83.0092 48.3024 82.5503 48.5534 82.5503 49.0554C82.5503 49.3374 82.6964 49.5816 82.9888 49.7879C83.2879 49.9942 83.9372 50.3003 84.9365 50.7061C85.8271 51.0706 86.4798 51.411 86.8945 51.7274C87.3092 52.0437 87.6151 52.4083 87.8123 52.8209C88.0094 53.2336 88.108 53.7253 88.108 54.2961Z" fill="#052882"/>
<path d="M98.4893 54.2961C98.4893 55.4791 98.0814 56.38 97.2655 56.999C96.4565 57.618 95.243 57.9275 93.625 57.9275C92.7956 57.9275 92.0885 57.869 91.5038 57.7521C90.9192 57.6421 90.3719 57.477 89.862 57.2569V54.6572C90.4399 54.9323 91.0891 55.1627 91.8098 55.3484C92.5372 55.5341 93.1763 55.627 93.7269 55.627C94.8555 55.627 95.4198 55.2968 95.4198 54.6366C95.4198 54.389 95.345 54.1895 95.1954 54.0382C95.0458 53.8801 94.7875 53.7047 94.4204 53.5121C94.0533 53.3127 93.5638 53.0823 92.9519 52.8209C92.0749 52.4495 91.4291 52.1056 91.0144 51.7893C90.6065 51.4729 90.3073 51.1118 90.117 50.7061C89.9334 50.2934 89.8416 49.7879 89.8416 49.1896C89.8416 48.1648 90.2325 47.3739 91.0144 46.8168C91.803 46.2528 92.9179 45.9709 94.3592 45.9709C95.7325 45.9709 97.0684 46.2735 98.3669 46.8787L97.4287 49.1483C96.8576 48.9007 96.324 48.6978 95.8277 48.5396C95.3314 48.3814 94.8249 48.3024 94.3082 48.3024C93.3904 48.3024 92.9315 48.5534 92.9315 49.0554C92.9315 49.3374 93.0777 49.5816 93.37 49.7879C93.6692 49.9942 94.3184 50.3003 95.3178 50.7061C96.2084 51.0706 96.861 51.411 97.2757 51.7274C97.6904 52.0437 97.9964 52.4083 98.1935 52.8209C98.3907 53.2336 98.4893 53.7253 98.4893 54.2961Z" fill="#052882"/>
<path d="M100.478 56.2459C100.478 55.6682 100.631 55.2315 100.937 54.9358C101.243 54.64 101.688 54.4922 102.273 54.4922C102.837 54.4922 103.272 54.6435 103.578 54.9461C103.891 55.2487 104.047 55.682 104.047 56.2459C104.047 56.7893 103.891 57.2191 103.578 57.5355C103.265 57.845 102.83 57.9997 102.273 57.9997C101.702 57.9997 101.26 57.8484 100.947 57.5458C100.634 57.2363 100.478 56.803 100.478 56.2459Z" fill="#052882"/>
<path d="M113.969 54.8016C113.969 55.8058 113.592 56.5795 112.837 57.1228C112.083 57.6593 111.012 57.9275 109.625 57.9275C108.143 57.9275 106.967 57.6971 106.097 57.2363V56.1325C107.212 56.6964 108.388 56.9784 109.625 56.9784C110.72 56.9784 111.549 56.7961 112.113 56.4316C112.684 56.0602 112.97 55.5685 112.97 54.9564C112.97 54.3924 112.742 53.9179 112.287 53.5327C111.838 53.1476 111.097 52.7693 110.064 52.3979C108.955 51.9922 108.177 51.6448 107.728 51.356C107.28 51.0603 106.94 50.7301 106.709 50.3656C106.484 49.9942 106.372 49.5438 106.372 49.0142C106.372 48.1751 106.719 47.5114 107.412 47.0231C108.112 46.5348 109.088 46.2907 110.339 46.2907C111.536 46.2907 112.671 46.5176 113.745 46.9715L113.368 47.9C112.28 47.4461 111.27 47.2191 110.339 47.2191C109.435 47.2191 108.718 47.3704 108.187 47.6731C107.657 47.9757 107.392 48.3952 107.392 48.9317C107.392 49.5162 107.596 49.9839 108.004 50.3347C108.418 50.6854 109.224 51.0774 110.421 51.5107C111.42 51.8752 112.147 52.2054 112.603 52.5011C113.058 52.79 113.398 53.1201 113.623 53.4915C113.854 53.8629 113.969 54.2996 113.969 54.8016Z" fill="#052882"/>
<path d="M117.702 46.5073V53.77C117.702 54.8979 117.936 55.7198 118.405 56.2356C118.874 56.7446 119.602 56.999 120.588 56.999C121.907 56.999 122.875 56.662 123.494 55.988C124.119 55.314 124.432 54.2171 124.432 52.6971V46.5073H125.432V57.7212H124.575L124.391 56.1737H124.33C123.61 57.3429 122.328 57.9275 120.486 57.9275C117.963 57.9275 116.702 56.5623 116.702 53.8319V46.5073H117.702Z" fill="#052882"/>
<path d="M133.885 57.9275C132.179 57.9275 130.935 57.281 130.153 55.988H130.082L130.112 56.8546C130.139 57.3635 130.153 57.9206 130.153 58.5258V62.7968H129.144V46.5073H130L130.194 48.1063H130.255C131.016 46.8959 132.233 46.2907 133.906 46.2907C135.401 46.2907 136.54 46.7893 137.322 47.7865C138.111 48.7769 138.505 50.2212 138.505 52.1194C138.505 53.9626 138.09 55.3931 137.261 56.411C136.438 57.422 135.313 57.9275 133.885 57.9275ZM133.865 57.0197C135 57.0197 135.877 56.5933 136.496 55.7404C137.122 54.8876 137.434 53.6944 137.434 52.1607C137.434 48.8663 136.258 47.2191 133.906 47.2191C132.614 47.2191 131.666 47.5802 131.061 48.3024C130.456 49.0176 130.153 50.1868 130.153 51.8099V52.14C130.153 53.8938 130.442 55.1455 131.02 55.8952C131.605 56.6448 132.553 57.0197 133.865 57.0197Z" fill="#052882"/>
<path d="M146.327 57.9275C144.62 57.9275 143.376 57.281 142.594 55.988H142.523L142.553 56.8546C142.581 57.3635 142.594 57.9206 142.594 58.5258V62.7968H141.585V46.5073H142.441L142.635 48.1063H142.696C143.458 46.8959 144.675 46.2907 146.347 46.2907C147.843 46.2907 148.981 46.7893 149.763 47.7865C150.552 48.7769 150.946 50.2212 150.946 52.1194C150.946 53.9626 150.531 55.3931 149.702 56.411C148.879 57.422 147.754 57.9275 146.327 57.9275ZM146.306 57.0197C147.442 57.0197 148.319 56.5933 148.937 55.7404C149.563 54.8876 149.875 53.6944 149.875 52.1607C149.875 48.8663 148.699 47.2191 146.347 47.2191C145.055 47.2191 144.107 47.5802 143.502 48.3024C142.897 49.0176 142.594 50.1868 142.594 51.8099V52.14C142.594 53.8938 142.883 55.1455 143.461 55.8952C144.046 56.6448 144.994 57.0197 146.306 57.0197Z" fill="#052882"/>
<path d="M163.194 52.0988C163.194 53.9282 162.755 55.3587 161.878 56.3904C161.001 57.4151 159.791 57.9275 158.248 57.9275C157.276 57.9275 156.419 57.6902 155.678 57.2157C154.937 56.7411 154.369 56.0602 153.975 55.173C153.581 54.2858 153.383 53.2611 153.383 52.0988C153.383 50.2693 153.822 48.8457 154.699 47.8278C155.576 46.803 156.779 46.2907 158.309 46.2907C159.832 46.2907 161.025 46.8099 161.888 47.8484C162.758 48.8801 163.194 50.2968 163.194 52.0988ZM154.444 52.0988C154.444 53.6393 154.777 54.8429 155.443 55.7095C156.116 56.5692 157.065 56.999 158.289 56.999C159.512 56.999 160.457 56.5692 161.123 55.7095C161.797 54.8429 162.133 53.6393 162.133 52.0988C162.133 50.5513 161.793 49.3512 161.113 48.4984C160.44 47.6455 159.492 47.2191 158.268 47.2191C157.044 47.2191 156.099 47.6455 155.433 48.4984C154.774 49.3443 154.444 50.5444 154.444 52.0988Z" fill="#052882"/>
<path d="M170.628 46.2907C171.097 46.2907 171.6 46.3388 172.137 46.4351L171.943 47.4151C171.481 47.2982 171.002 47.2398 170.505 47.2398C169.56 47.2398 168.785 47.6455 168.18 48.4571C167.575 49.2687 167.273 50.2934 167.273 51.5314V57.7212H166.263V46.5073H167.12L167.222 48.5293H167.293C167.749 47.704 168.235 47.1263 168.751 46.7962C169.268 46.4592 169.893 46.2907 170.628 46.2907Z" fill="#052882"/>
<path d="M177.328 57.0197C177.967 57.0197 178.524 56.9646 179 56.8546V57.6799C178.511 57.845 177.946 57.9275 177.307 57.9275C176.328 57.9275 175.604 57.6627 175.135 57.1331C174.673 56.6036 174.442 55.7714 174.442 54.6366V47.3945H172.8V46.7962L174.442 46.3319L174.952 43.7941H175.472V46.5073H178.725V47.3945H175.472V54.4922C175.472 55.3519 175.621 55.988 175.92 56.4007C176.219 56.8133 176.689 57.0197 177.328 57.0197Z" fill="#052882"/>
</svg>
