<svg width="180" height="67" viewBox="0 0 180 67" fill="none" xmlns="http://www.w3.org/2000/svg">
<path d="M109.634 25.0164H102.141V30.0197H82.1608L74.668 37.5246V30.0197H69.6729V7.50493H74.668V0H109.634V25.0164ZM99.6439 10.0066H72.1704V27.5181H77.1656V31.4855C77.829 30.821 78.4794 30.1565 79.1168 29.492C79.7673 28.8275 80.4372 28.1695 81.1266 27.5181H99.6439V10.0066ZM107.137 2.50164H77.1656V7.50493H102.141V22.5148H107.137V2.50164Z" fill="#052882"/>
<path d="M81.3689 18.7623C81.3689 19.7043 80.6052 20.468 79.6632 20.468C78.7212 20.468 77.9575 19.7043 77.9575 18.7623C77.9575 17.8203 78.7212 17.0566 79.6632 17.0566C80.6052 17.0566 81.3689 17.8203 81.3689 18.7623Z" fill="#052882"/>
<path d="M87.7042 18.7623C87.7042 19.7043 86.9405 20.468 85.9985 20.468C85.0565 20.468 84.2929 19.7043 84.2929 18.7623C84.2929 17.8203 85.0565 17.0566 85.9985 17.0566C86.9405 17.0566 87.7042 17.8203 87.7042 18.7623Z" fill="#052882"/>
<path d="M94.0395 18.7623C94.0395 19.7043 93.2759 20.468 92.3339 20.468C91.3919 20.468 90.6282 19.7043 90.6282 18.7623C90.6282 17.8203 91.3919 17.0566 92.3339 17.0566C93.2759 17.0566 94.0395 17.8203 94.0395 18.7623Z" fill="#052882"/>
<path d="M6.77109 48.9848C8.20804 48.9848 9.33293 49.5472 10.1458 50.6721C10.9586 51.7897 11.365 53.3247 11.365 55.2769C11.365 57.2872 10.9441 58.8439 10.1022 59.947C9.26761 61.0501 8.12821 61.6016 6.684 61.6016C5.25431 61.6016 4.13305 61.0827 3.32023 60.0449H3.09162L2.53644 61.3839H0V44.4453H3.32023V48.386C3.32023 48.8868 3.27669 49.6887 3.1896 50.7919H3.32023C4.09676 49.5871 5.24705 48.9848 6.77109 48.9848ZM5.70426 51.641C4.88419 51.641 4.28546 51.895 3.90807 52.403C3.53069 52.9037 3.33474 53.7347 3.32023 54.8959V55.2551C3.32023 56.5614 3.51255 57.4976 3.89719 58.0637C4.28908 58.6298 4.90596 58.9128 5.74781 58.9128C6.43 58.9128 6.97067 58.6007 7.36982 57.9766C7.77623 57.3452 7.97944 56.4308 7.97944 55.2333C7.97944 54.0359 7.77623 53.1396 7.36982 52.5445C6.96341 51.9421 6.40823 51.641 5.70426 51.641Z" fill="#052882"/>
<path d="M22.73 61.3839L22.2836 59.8272H22.1095C21.7539 60.3933 21.2495 60.8324 20.5963 61.1444C19.9432 61.4492 19.1993 61.6016 18.3647 61.6016C16.935 61.6016 15.8573 61.2206 15.1315 60.4586C14.4058 59.6893 14.0429 58.5862 14.0429 57.1493V49.2134H17.3632V56.3219C17.3632 57.2001 17.5192 57.8605 17.8313 58.3032C18.1433 58.7386 18.6405 58.9563 19.3226 58.9563C20.2516 58.9563 20.9229 58.6479 21.3366 58.031C21.7502 57.4069 21.9571 56.3764 21.9571 54.9394V49.2134H25.2773V61.3839H22.73Z" fill="#052882"/>
<path d="M37.2519 57.7698C37.2519 59.018 36.8165 59.9687 35.9456 60.6219C35.0819 61.2751 33.7865 61.6016 32.0593 61.6016C31.1739 61.6016 30.4191 61.54 29.795 61.4166C29.1708 61.3005 28.5866 61.1263 28.0423 60.8941V58.1508C28.6592 58.4411 29.3523 58.6842 30.1216 58.8801C30.8981 59.0761 31.5803 59.1741 32.1681 59.1741C33.3728 59.1741 33.9752 58.8257 33.9752 58.129C33.9752 57.8677 33.8954 57.6573 33.7357 57.4976C33.5761 57.3307 33.3003 57.1456 32.9084 56.9424C32.5165 56.732 31.994 56.4889 31.3408 56.2131C30.4046 55.8212 29.7151 55.4583 29.2725 55.1245C28.837 54.7906 28.5177 54.4096 28.3145 53.9814C28.1185 53.546 28.0206 53.0126 28.0206 52.3812C28.0206 51.2999 28.4379 50.4653 29.2725 49.8774C30.1143 49.2823 31.3045 48.9848 32.8431 48.9848C34.309 48.9848 35.7351 49.3041 37.1213 49.9427L36.1197 52.3377C35.5101 52.0764 34.9404 51.8623 34.4106 51.6954C33.8809 51.5285 33.3402 51.445 32.7886 51.445C31.8089 51.445 31.319 51.7099 31.319 52.2397C31.319 52.5372 31.4751 52.7949 31.7871 53.0126C32.1064 53.2303 32.7995 53.5533 33.8663 53.9814C34.8171 54.3661 35.5138 54.7253 35.9565 55.0592C36.3992 55.393 36.7257 55.7776 36.9362 56.2131C37.1467 56.6485 37.2519 57.1674 37.2519 57.7698Z" fill="#052882"/>
<path d="M39.7012 46.0673C39.7012 44.986 40.3036 44.4453 41.5083 44.4453C42.713 44.4453 43.3154 44.986 43.3154 46.0673C43.3154 46.5826 43.163 46.9854 42.8582 47.2757C42.5606 47.5587 42.1107 47.7002 41.5083 47.7002C40.3036 47.7002 39.7012 47.1559 39.7012 46.0673ZM43.163 61.3839H39.8428V49.2134H43.163V61.3839Z" fill="#052882"/>
<path d="M57.8917 61.3839H54.5715V54.2754C54.5715 53.3972 54.4155 52.7404 54.1034 52.305C53.7914 51.8623 53.2942 51.641 52.612 51.641C51.6831 51.641 51.0118 51.953 50.5981 52.5772C50.1845 53.194 49.9776 54.2209 49.9776 55.6579V61.3839H46.6574V49.2134H49.1938L49.6402 50.7701H49.8252C50.1953 50.1822 50.7034 49.7395 51.3493 49.442C52.0024 49.1372 52.7427 48.9848 53.57 48.9848C54.9852 48.9848 56.0593 49.3694 56.7923 50.1387C57.5252 50.9007 57.8917 52.0038 57.8917 53.448V61.3839Z" fill="#052882"/>
<path d="M66.3502 51.347C65.6462 51.347 65.0946 51.572 64.6955 52.022C64.2963 52.4647 64.0677 53.0961 64.0097 53.9161H68.6689C68.6544 53.0961 68.4403 52.4647 68.0266 52.022C67.6129 51.572 67.0541 51.347 66.3502 51.347ZM66.8183 61.6016C64.8588 61.6016 63.3275 61.061 62.2244 59.9796C61.1213 58.8983 60.5697 57.367 60.5697 55.3857C60.5697 53.3464 61.0777 51.7716 62.0937 50.6612C63.117 49.5436 64.5286 48.9848 66.3284 48.9848C68.0484 48.9848 69.3874 49.4746 70.3453 50.4544C71.3033 51.4341 71.7823 52.7876 71.7823 54.5149V56.126H63.9335C63.9698 57.0694 64.2492 57.8061 64.7717 58.3358C65.2942 58.8656 66.0272 59.1305 66.9707 59.1305C67.7037 59.1305 68.3967 59.0543 69.0499 58.9019C69.7031 58.7495 70.3852 58.5064 71.0965 58.1726V60.7417C70.5159 61.0319 69.8954 61.246 69.235 61.3839C68.5745 61.5291 67.769 61.6016 66.8183 61.6016Z" fill="#052882"/>
<path d="M82.9731 57.7698C82.9731 59.018 82.5376 59.9687 81.6668 60.6219C80.8031 61.2751 79.5077 61.6016 77.7805 61.6016C76.8951 61.6016 76.1403 61.54 75.5162 61.4166C74.892 61.3005 74.3078 61.1263 73.7635 60.8941V58.1508C74.3804 58.4411 75.0735 58.6842 75.8428 58.8801C76.6193 59.0761 77.3015 59.1741 77.8893 59.1741C79.094 59.1741 79.6964 58.8257 79.6964 58.129C79.6964 57.8677 79.6166 57.6573 79.4569 57.4976C79.2972 57.3307 79.0215 57.1456 78.6296 56.9424C78.2377 56.732 77.7152 56.4889 77.062 56.2131C76.1258 55.8212 75.4363 55.4583 74.9937 55.1245C74.5582 54.7906 74.2389 54.4096 74.0357 53.9814C73.8397 53.546 73.7418 53.0126 73.7418 52.3812C73.7418 51.2999 74.1591 50.4653 74.9937 49.8774C75.8355 49.2823 77.0257 48.9848 78.5643 48.9848C80.0302 48.9848 81.4563 49.3041 82.8425 49.9427L81.8409 52.3377C81.2313 52.0764 80.6616 51.8623 80.1318 51.6954C79.6021 51.5285 79.0614 51.445 78.5098 51.445C77.5301 51.445 77.0402 51.7099 77.0402 52.2397C77.0402 52.5372 77.1963 52.7949 77.5083 53.0126C77.8276 53.2303 78.5207 53.5533 79.5875 53.9814C80.5383 54.3661 81.235 54.7253 81.6777 55.0592C82.1204 55.393 82.4469 55.7776 82.6574 56.2131C82.8679 56.6485 82.9731 57.1674 82.9731 57.7698Z" fill="#052882"/>
<path d="M94.055 57.7698C94.055 59.018 93.6196 59.9687 92.7487 60.6219C91.8851 61.2751 90.5897 61.6016 88.8624 61.6016C87.977 61.6016 87.2223 61.54 86.5981 61.4166C85.974 61.3005 85.3898 61.1263 84.8455 60.8941V58.1508C85.4624 58.4411 86.1554 58.6842 86.9247 58.8801C87.7012 59.0761 88.3834 59.1741 88.9713 59.1741C90.176 59.1741 90.7783 58.8257 90.7783 58.129C90.7783 57.8677 90.6985 57.6573 90.5389 57.4976C90.3792 57.3307 90.1034 57.1456 89.7115 56.9424C89.3196 56.732 88.7971 56.4889 88.1439 56.2131C87.2077 55.8212 86.5183 55.4583 86.0756 55.1245C85.6402 54.7906 85.3208 54.4096 85.1176 53.9814C84.9217 53.546 84.8237 53.0126 84.8237 52.3812C84.8237 51.2999 85.241 50.4653 86.0756 49.8774C86.9174 49.2823 88.1077 48.9848 89.6462 48.9848C91.1122 48.9848 92.5383 49.3041 93.9244 49.9427L92.9229 52.3377C92.3133 52.0764 91.7436 51.8623 91.2138 51.6954C90.684 51.5285 90.1433 51.445 89.5918 51.445C88.612 51.445 88.1222 51.7099 88.1222 52.2397C88.1222 52.5372 88.2782 52.7949 88.5903 53.0126C88.9096 53.2303 89.6027 53.5533 90.6695 53.9814C91.6202 54.3661 92.3169 54.7253 92.7596 55.0592C93.2023 55.393 93.5289 55.7776 93.7393 56.2131C93.9498 56.6485 94.055 57.1674 94.055 57.7698Z" fill="#052882"/>
<path d="M96.1778 59.8272C96.1778 59.2176 96.3411 58.7568 96.6677 58.4447C96.9943 58.1326 97.4696 57.9766 98.0937 57.9766C98.6961 57.9766 99.1606 58.1363 99.4871 58.4556C99.821 58.7749 99.9879 59.2321 99.9879 59.8272C99.9879 60.4006 99.821 60.8541 99.4871 61.188C99.1533 61.5146 98.6888 61.6778 98.0937 61.6778C97.4841 61.6778 97.0124 61.5182 96.6786 61.1989C96.3447 60.8723 96.1778 60.4151 96.1778 59.8272Z" fill="#052882"/>
<path d="M110.58 58.3032C110.58 59.3628 110.177 60.1792 109.372 60.7525C108.566 61.3186 107.423 61.6016 105.943 61.6016C104.36 61.6016 103.105 61.3585 102.176 60.8723V59.7075C103.366 60.3026 104.622 60.6001 105.943 60.6001C107.111 60.6001 107.996 60.4078 108.599 60.0232C109.208 59.6313 109.513 59.1124 109.513 58.4665C109.513 57.8714 109.27 57.3706 108.784 56.9642C108.305 56.5578 107.514 56.1586 106.411 55.7668C105.228 55.3386 104.397 54.9721 103.918 54.6673C103.439 54.3552 103.076 54.0068 102.829 53.6222C102.59 53.2303 102.47 52.755 102.47 52.1961C102.47 51.3107 102.84 50.6104 103.58 50.0951C104.328 49.5799 105.369 49.3222 106.705 49.3222C107.982 49.3222 109.194 49.5617 110.34 50.0407L109.938 51.0205C108.777 50.5415 107.699 50.302 106.705 50.302C105.739 50.302 104.974 50.4616 104.408 50.781C103.842 51.1003 103.559 51.543 103.559 52.1091C103.559 52.7259 103.776 53.2194 104.212 53.5896C104.654 53.9597 105.514 54.3733 106.792 54.8306C107.858 55.2152 108.635 55.5635 109.121 55.8756C109.608 56.1804 109.97 56.5288 110.21 56.9207C110.457 57.3126 110.58 57.7734 110.58 58.3032Z" fill="#052882"/>
<path d="M114.564 49.5508V57.2146C114.564 58.4048 114.815 59.272 115.315 59.8163C115.816 60.3534 116.593 60.6219 117.645 60.6219C119.053 60.6219 120.087 60.2663 120.748 59.5551C121.415 58.8439 121.749 57.6863 121.749 56.0824V49.5508H122.816V61.3839H121.901L121.705 59.751H121.64C120.871 60.9848 119.503 61.6016 117.536 61.6016C114.844 61.6016 113.497 60.1611 113.497 57.2799V49.5508H114.564Z" fill="#052882"/>
<path d="M131.84 61.6016C130.019 61.6016 128.691 60.9195 127.856 59.5551H127.78L127.813 60.4695C127.842 61.0065 127.856 61.5944 127.856 62.233V66.7398H126.778V49.5508H127.693L127.9 51.2382H127.965C128.778 49.9609 130.077 49.3222 131.862 49.3222C133.459 49.3222 134.674 49.8484 135.509 50.9007C136.351 51.9458 136.772 53.4698 136.772 55.4728C136.772 57.4178 136.329 58.9273 135.444 60.0014C134.565 61.0682 133.364 61.6016 131.84 61.6016ZM131.819 60.6437C133.031 60.6437 133.967 60.1937 134.627 59.2938C135.295 58.3939 135.629 57.1348 135.629 55.5164C135.629 52.0401 134.373 50.302 131.862 50.302C130.483 50.302 129.471 50.683 128.825 51.445C128.179 52.1998 127.856 53.4335 127.856 55.1463V55.4946C127.856 57.3452 128.165 58.6661 128.781 59.4571C129.406 60.2482 130.418 60.6437 131.819 60.6437Z" fill="#052882"/>
<path d="M145.121 61.6016C143.3 61.6016 141.972 60.9195 141.137 59.5551H141.061L141.093 60.4695C141.122 61.0065 141.137 61.5944 141.137 62.233V66.7398H140.059V49.5508H140.974L141.181 51.2382H141.246C142.059 49.9609 143.358 49.3222 145.143 49.3222C146.74 49.3222 147.955 49.8484 148.79 50.9007C149.632 51.9458 150.053 53.4698 150.053 55.4728C150.053 57.4178 149.61 58.9273 148.725 60.0014C147.846 61.0682 146.645 61.6016 145.121 61.6016ZM145.099 60.6437C146.311 60.6437 147.248 60.1937 147.908 59.2938C148.576 58.3939 148.91 57.1348 148.91 55.5164C148.91 52.0401 147.654 50.302 145.143 50.302C143.764 50.302 142.752 50.683 142.106 51.445C141.46 52.1998 141.137 53.4335 141.137 55.1463V55.4946C141.137 57.3452 141.445 58.6661 142.062 59.4571C142.686 60.2482 143.699 60.6437 145.099 60.6437Z" fill="#052882"/>
<path d="M163.127 55.4511C163.127 57.3815 162.659 58.891 161.722 59.9796C160.786 61.061 159.494 61.6016 157.847 61.6016C156.809 61.6016 155.895 61.3513 155.104 60.8505C154.313 60.3498 153.707 59.6313 153.286 58.6951C152.865 57.7589 152.654 56.6775 152.654 55.4511C152.654 53.5206 153.122 52.0183 154.059 50.9443C154.995 49.8629 156.279 49.3222 157.912 49.3222C159.538 49.3222 160.812 49.8702 161.733 50.966C162.662 52.0546 163.127 53.5496 163.127 55.4511ZM153.787 55.4511C153.787 57.0767 154.142 58.3467 154.853 59.2612C155.572 60.1683 156.584 60.6219 157.891 60.6219C159.197 60.6219 160.206 60.1683 160.917 59.2612C161.635 58.3467 161.995 57.0767 161.995 55.4511C161.995 53.8182 161.632 52.5518 160.906 51.6518C160.187 50.7519 159.175 50.302 157.869 50.302C156.562 50.302 155.554 50.7519 154.842 51.6518C154.138 52.5445 153.787 53.8109 153.787 55.4511Z" fill="#052882"/>
<path d="M171.063 49.3222C171.563 49.3222 172.1 49.373 172.674 49.4746L172.467 50.5088C171.973 50.3854 171.462 50.3238 170.932 50.3238C169.923 50.3238 169.096 50.7519 168.45 51.6083C167.804 52.4647 167.481 53.546 167.481 54.8523V61.3839H166.403V49.5508H167.318L167.427 51.6845H167.503C167.989 50.8136 168.508 50.204 169.06 49.8557C169.611 49.5 170.279 49.3222 171.063 49.3222Z" fill="#052882"/>
<path d="M178.215 60.6437C178.897 60.6437 179.492 60.5856 180 60.4695V61.3404C179.477 61.5146 178.875 61.6016 178.193 61.6016C177.148 61.6016 176.375 61.3222 175.874 60.7634C175.381 60.2046 175.134 59.3265 175.134 58.129V50.487H173.381V49.8557L175.134 49.3658L175.678 46.6878H176.233V49.5508H179.706V50.487H176.233V57.9766C176.233 58.8838 176.393 59.5551 176.712 59.9905C177.032 60.426 177.533 60.6437 178.215 60.6437Z" fill="#052882"/>
</svg>
